HIERARCHY
ROOT Hips
{
	OFFSET	0.00	0.00	0.00
	CHANNELS 6 Xposition Yposition Zposition Zrotation Xrotation Yrotation
	JOINT LeftUpLeg
	{
		OFFSET	 0.126116	-0.065224	 0.014019
		CHANNELS 3 Zrotation Xrotation Yrotation
		JOINT LeftLeg
		{
			OFFSET	 0.000000	 0.569914	 0.000000
			CHANNELS 3 Zrotation Xrotation Yrotation
			JOINT LeftFoot
			{
				OFFSET	 0.000000	 0.544423	 0.000000
				CHANNELS 3 Zrotation Xrotation Yrotation
				JOINT LeftToeBase
				{
					OFFSET	 0.000000	 0.207117	 0.000000
					CHANNELS 3 Zrotation Xrotation Yrotation
					End Site
					{
						OFFSET	 0.000000	 0.207117	 0.000000
					}
				}
			}
		}
	}
	JOINT RightUpLeg
	{
		OFFSET	-0.124023	-0.065224	 0.008373
		CHANNELS 3 Zrotation Xrotation Yrotation
		JOINT RightLeg
		{
			OFFSET	 0.000000	 0.570047	 0.000000
			CHANNELS 3 Zrotation Xrotation Yrotation
			JOINT RightFoot
			{
				OFFSET	 0.000000	 0.544354	 0.000000
				CHANNELS 3 Zrotation Xrotation Yrotation
				JOINT RightToeBase
				{
					OFFSET	 0.000000	 0.207540	 0.000000
					CHANNELS 3 Zrotation Xrotation Yrotation
					End Site
					{
						OFFSET	 0.000000	 0.207540	 0.000000
					}
				}
			}
		}
	}
	JOINT Spine
	{
		OFFSET	 0.000184	 0.117403	 0.007763
		CHANNELS 3 Zrotation Xrotation Yrotation
		JOINT Spine1
		{
			OFFSET	 0.000000	 0.137269	 0.000000
			CHANNELS 3 Zrotation Xrotation Yrotation
			JOINT Spine2
			{
				OFFSET	 0.000000	 0.156879	 0.000000
				CHANNELS 3 Zrotation Xrotation Yrotation
				JOINT LeftShoulder
				{
					OFFSET	 0.080501	 0.160143	 0.002496
					CHANNELS 3 Zrotation Xrotation Yrotation
					JOINT LeftArm
					{
						OFFSET	 0.000000	 0.164363	 0.000000
						CHANNELS 3 Zrotation Xrotation Yrotation
						JOINT LeftForeArm
						{
							OFFSET	 0.000000	 0.364576	 0.000000
							CHANNELS 3 Zrotation Xrotation Yrotation
							JOINT LeftHand
							{
								OFFSET	 0.000000	 0.360812	 0.000000
								CHANNELS 3 Zrotation Xrotation Yrotation
								JOINT LeftHandIndex1
								{
									OFFSET	 0.000000	 0.086006	 0.000000
									CHANNELS 3 Zrotation Xrotation Yrotation
									JOINT LeftHandIndex2
									{
										OFFSET	 0.000000	 0.047237	 0.000000
										CHANNELS 3 Zrotation Xrotation Yrotation
										JOINT LeftHandIndex3
										{
											OFFSET	-0.004284	 0.038165	 0.000551
											CHANNELS 3 Zrotation Xrotation Yrotation
											End Site
											{
												OFFSET	-0.004284	 0.038165	 0.000551
											}
										}
									}
								}
							}
						}
					}
				}
				JOINT Neck
				{
					OFFSET	 0.000000	 0.176489	 0.000000
					CHANNELS 3 Zrotation Xrotation Yrotation
					JOINT Head
					{
						OFFSET	 0.000000	 0.077941	 0.001747
						CHANNELS 3 Zrotation Xrotation Yrotation
						End Site
						{
							OFFSET	 0.000000	 0.077941	 0.001747
						}
					}
				}
				JOINT RightShoulder
				{
					OFFSET	-0.080363	 0.159706	-0.000306
					CHANNELS 3 Zrotation Xrotation Yrotation
					JOINT RightArm
					{
						OFFSET	 0.000000	 0.164196	 0.000000
						CHANNELS 3 Zrotation Xrotation Yrotation
						JOINT RightForeArm
						{
							OFFSET	 0.000000	 0.365611	 0.000000
							CHANNELS 3 Zrotation Xrotation Yrotation
							JOINT RightHand
							{
								OFFSET	 0.000000	 0.360648	 0.000000
								CHANNELS 3 Zrotation Xrotation Yrotation
								JOINT RightHandIndex1
								{
									OFFSET	 0.000000	 0.069977	 0.000000
									CHANNELS 3 Zrotation Xrotation Yrotation
									JOINT RightHandIndex2
									{
										OFFSET	 0.000000	 0.052305	 0.000000
										CHANNELS 3 Zrotation Xrotation Yrotation
										JOINT RightHandIndex3
										{
											OFFSET	 0.009002	 0.042196	 0.000782
											CHANNELS 3 Zrotation Xrotation Yrotation
											End Site
											{
												OFFSET	 0.009002	 0.042196	 0.000782
											}
										}
									}
								}
							}
						}
					}
				}
			}
		}
	}
}
MOTION
Frames:    4
Frame Time: 0.03333334
 0.002310	 1.271135	 0.063403	-0.379388	 0.004719	-179.993100	-177.117300	 0.794818	-11.815080	 2.078201	-9.713519	-0.080845	-5.308912	 69.557610	 4.701936	 1.292262	 28.425850	-2.713146	 176.382700	 2.114423	 11.785940	-2.488240	-11.923820	 0.006353	 5.555966	 70.580360	-4.839304	-1.288183	 28.361890	 2.710176	-0.030967	 2.963096	 9.042381	-2.159548	 3.053506	 4.895658	 2.049318	-3.800936	-14.313600	-101.478000	 1.740671	 90.353400	 61.157550	 45.161190	-46.429830	 2.138132	 3.955347	 1.089208	-18.035620	 7.048335	 25.170510	-6.580301	 5.266122	 0.000000	 0.000000	 0.000000	 0.000000	 0.000000	 0.000000	 0.000000	 0.089846	-3.783161	 0.005928	 0.025376	 0.816871	-3.558625	 101.796200	-0.213313	-89.955440	-5.093255	 61.418900	-3.414948	-7.850301	 11.459080	 2.360775	-1.882984	-16.833350	 35.912980	 15.208500	 5.323790	 0.000000	 0.000000	 0.000000	 0.000000	 0.000000	 0.000000	 0.000000
 0.002310	 1.271135	 0.063403	-0.379345	 0.004723	-179.993100	-176.945200	 0.792199	-13.844600	 2.078196	-9.713506	-0.080851	-5.270066	 69.439700	 4.679854	 1.292262	 28.425850	-2.713146	 176.171900	 2.110030	 13.817300	-2.488223	-11.923740	 0.006357	 5.508190	 70.472310	-4.814035	-1.288183	 28.361890	 2.710176	 0.106628	 2.961344	 6.381118	-2.159559	 3.053509	 4.895675	 2.049321	-3.800944	-14.313590	-101.478000	 1.740673	 90.353390	 60.675280	 44.975020	-45.945330	 3.612333	 3.987511	-0.703657	-17.688400	 6.950496	 23.677870	-6.580301	 5.266122	 0.000000	 0.000000	 0.000000	 0.000000	 0.000000	 0.000000	 0.000000	 0.089846	-3.783161	 0.005928	 0.025376	 0.816867	-3.558617	 101.796200	-0.213298	-89.955470	-3.298802	 58.882620	-4.888012	-12.398900	 15.695360	 5.086223	-0.886275	-19.818130	 36.262310	 15.208500	 5.323790	 0.000000	 0.000000	 0.000000	 0.000000	 0.000000	 0.000000	 0.000000
 0.002310	 1.271135	 0.063403	-0.379345	 0.004723	-179.993100	-176.771200	 0.783453	-15.899210	 2.078238	-9.713696	-0.080844	-5.226163	 69.321150	 4.657114	 1.292262	 28.425850	-2.713146	 175.958600	 2.098064	 15.873710	-2.488237	-11.923800	 0.006355	 5.455408	 70.363900	-4.787857	-1.288183	 28.361890	 2.710176	 0.340088	 2.943699	 1.851020	-2.159559	 3.053509	 4.895675	 2.049321	-3.800944	-14.313590	-101.478000	 1.740673	 90.353390	 60.155150	 44.766740	-45.414370	 6.139113	 4.036830	-3.777637	-17.174040	 6.541555	 21.127280	-6.580301	 5.266122	 0.000000	 0.000000	 0.000000	 0.000000	 0.000000	 0.000000	 0.000000	 0.089846	-3.783161	 0.005928	 0.025376	 0.816867	-3.558617	 101.796200	-0.213298	-89.955470	-1.357718	 55.304670	-6.353377	-19.985400	 21.840980	 10.589750	 0.680297	-24.806160	 36.899600	 15.208500	 5.323790	 0.000000	 0.000000	 0.000000	 0.000000	 0.000000	 0.000000	 0.000000
 0.002310	 1.271135	 0.063403	-0.379379	 0.004724	-179.993100	-176.548300	 0.762851	-18.539860	 2.078195	-9.713502	-0.080845	-5.162767	 69.169970	 4.627127	 1.292262	 28.425850	-2.713146	 175.685500	 2.071313	 18.516600	-2.488206	-11.923660	 0.006357	 5.381077	 70.226140	-4.753325	-1.288183	 28.361890	 2.710176	 0.757940	 2.864774	-6.382307	-2.159603	 3.053517	 4.895669	 2.049336	-3.800947	-14.313590	-101.478000	 1.740675	 90.353390	 59.419140	 44.458430	-44.654640	 10.872430	 4.109867	-9.539506	-16.287170	 5.607844	 16.350090	-6.580301	 5.266122	 0.000000	 0.000000	 0.000000	 0.000000	 0.000000	 0.000000	 0.000000	 0.089846	-3.783161	 0.005928	 0.025376	 0.816867	-3.558617	 101.796200	-0.213310	-89.955460	 0.293938	 49.897570	-7.225092	-34.532830	 30.548920	 23.369120	 3.481928	-33.633680	 38.209330	 15.208500	 5.323790	 0.000000	 0.000000	 0.000000	 0.000000	 0.000000	 0.000000	 0.000000
